<?xml version='1.0' encoding='utf-8'?>
<mlt LC_NUMERIC="en_US.UTF-8" version="6.0.0" root="/home/labuser" title="Anonymous Submission" producer="main bin">
 <profile description="HD 1080p 25 fps" display_aspect_den="9" colorspace="709" width="1920" frame_rate_num="25" progressive="1" sample_aspect_num="1" display_aspect_num="16" frame_rate_den="1" sample_aspect_den="1" height="1080"/>
 <producer in="0" out="124" id="1">
  <property name="mlt_type">producer</property>
  <property name="length">00:00:05:00</property>
  <property name="eof">pause</property>
  <property name="resource">catkin_test/src/limo/final plots/error_combined_00.png</property>
  <property name="ttl">25</property>
  <property name="aspect_ratio">1</property>
  <property name="progressive">1</property>
  <property name="seekable">1</property>
  <property name="loop">1</property>
  <property name="meta.media.width">600</property>
  <property name="meta.media.height">601</property>
  <property name="mlt_service">pixbuf</property>
  <property name="kdenlive:file_size">55804</property>
  <property name="kdenlive:file_hash">8cb5a2462464f771db36bc1273fb0ce4</property>
 </producer>
 <producer in="0" out="124" id="2">
  <property name="mlt_type">producer</property>
  <property name="length">00:00:05:00</property>
  <property name="eof">pause</property>
  <property name="resource">catkin_test/src/limo/final plots/error_combined_01.png</property>
  <property name="ttl">25</property>
  <property name="aspect_ratio">1</property>
  <property name="progressive">1</property>
  <property name="seekable">1</property>
  <property name="loop">1</property>
  <property name="meta.media.width">600</property>
  <property name="meta.media.height">601</property>
  <property name="mlt_service">pixbuf</property>
  <property name="kdenlive:file_size">76316</property>
  <property name="kdenlive:file_hash">5932510fb100c9217feda5ac495640cf</property>
 </producer>
 <producer in="0" out="124" id="3">
  <property name="mlt_type">producer</property>
  <property name="length">00:00:05:00</property>
  <property name="eof">pause</property>
  <property name="resource">catkin_test/src/limo/final plots/error_combined_04.png</property>
  <property name="ttl">25</property>
  <property name="aspect_ratio">1</property>
  <property name="progressive">1</property>
  <property name="seekable">1</property>
  <property name="loop">1</property>
  <property name="meta.media.width">600</property>
  <property name="meta.media.height">601</property>
  <property name="mlt_service">pixbuf</property>
  <property name="kdenlive:file_size">40251</property>
  <property name="kdenlive:file_hash">0f6607f3c99eef3b8d8801e687ae8000</property>
 </producer>
 <producer in="0" out="124" id="4">
  <property name="mlt_type">producer</property>
  <property name="length">00:00:05:00</property>
  <property name="eof">pause</property>
  <property name="resource">catkin_test/src/limo/final plots/traj_combined_00.png</property>
  <property name="ttl">25</property>
  <property name="aspect_ratio">1</property>
  <property name="progressive">1</property>
  <property name="seekable">1</property>
  <property name="loop">1</property>
  <property name="meta.media.width">646</property>
  <property name="meta.media.height">511</property>
  <property name="mlt_service">pixbuf</property>
  <property name="kdenlive:file_size">218719</property>
  <property name="kdenlive:file_hash">96c748b232c16c115cac894dcd87eda5</property>
 </producer>
 <producer in="0" out="124" id="5">
  <property name="mlt_type">producer</property>
  <property name="length">00:00:05:00</property>
  <property name="eof">pause</property>
  <property name="resource">catkin_test/src/limo/final plots/traj_combined_01.png</property>
  <property name="ttl">25</property>
  <property name="aspect_ratio">1</property>
  <property name="progressive">1</property>
  <property name="seekable">1</property>
  <property name="loop">1</property>
  <property name="meta.media.width">636</property>
  <property name="meta.media.height">591</property>
  <property name="mlt_service">pixbuf</property>
  <property name="kdenlive:file_size">157279</property>
  <property name="kdenlive:file_hash">4b541123edb7b86fb8b6d09156fc2e19</property>
 </producer>
 <producer in="0" out="124" id="6">
  <property name="mlt_type">producer</property>
  <property name="length">00:00:05:00</property>
  <property name="eof">pause</property>
  <property name="resource">catkin_test/src/limo/final plots/traj_combined_04.png</property>
  <property name="ttl">25</property>
  <property name="aspect_ratio">1</property>
  <property name="progressive">1</property>
  <property name="seekable">1</property>
  <property name="loop">1</property>
  <property name="meta.media.width">659</property>
  <property name="meta.media.height">661</property>
  <property name="mlt_service">pixbuf</property>
  <property name="kdenlive:file_size">128237</property>
  <property name="kdenlive:file_hash">5c7f691ef0824a27bf31a009287a1695</property>
 </producer>
 <producer in="0" out="124" title="Anonymous Submission" id="7">
  <property name="mlt_type">mlt_producer</property>
  <property name="length">00:00:05:00</property>
  <property name="eof">pause</property>
  <property name="resource"/>
  <property name="progressive">1</property>
  <property name="aspect_ratio">1</property>
  <property name="seekable">1</property>
  <property name="mlt_service">kdenlivetitle</property>
  <property name="kdenlive:clipname">Title clip</property>
  <property name="xmldata">&lt;kdenlivetitle width="1920" height="1080" LC_NUMERIC="en_US.UTF-8" duration="125" out="125">
 &lt;item z-index="0" type="QGraphicsTextItem">
  &lt;position x="670.492" y="193.279">
   &lt;transform>1,0,0,0,1,0,0,0,1&lt;/transform>
  &lt;/position>
  &lt;content font-pixel-size="80" font-italic="0" font-color="0,0,0,255" font-underline="0" font="Ubuntu" font-weight="50">Sequence 00&lt;/content>
 &lt;/item>
 &lt;startviewport rect="0,0,1920,1080"/>
 &lt;endviewport rect="0,0,1920,1080"/>
 &lt;background color="0,0,0,0"/>
&lt;/kdenlivetitle>
</property>
  <property name="force_reload">0</property>
  <property name="meta.media.width">1920</property>
  <property name="meta.media.height">1080</property>
  <property name="kdenlive:file_hash">913359765aa23fd8df4de6101ed0ecd3</property>
  <property name="global_feed">1</property>
 </producer>
 <producer in="0" out="124" title="Anonymous Submission" id="8">
  <property name="mlt_type">mlt_producer</property>
  <property name="length">00:00:05:00</property>
  <property name="eof">pause</property>
  <property name="resource"/>
  <property name="progressive">1</property>
  <property name="aspect_ratio">1</property>
  <property name="seekable">1</property>
  <property name="mlt_service">kdenlivetitle</property>
  <property name="kdenlive:clipname">Title clip</property>
  <property name="xmldata">&lt;kdenlivetitle LC_NUMERIC="en_US.UTF-8" width="1920" out="125" duration="125" height="1080">
 &lt;item type="QGraphicsPixmapItem" z-index="2">
  &lt;position x="1372.95" y="61.3706">
   &lt;transform>0.450678,0,0,0,0.450678,0,0,0,1&lt;/transform>
  &lt;/position>
  &lt;content url="/home/labuser/Downloads/aralogo.png"/>
 &lt;/item>
 &lt;item type="QGraphicsTextItem" z-index="1">
  &lt;position x="55.9974" y="862.886">
   &lt;transform>1,0,0,0,1,0,0,0,1&lt;/transform>
  &lt;/position>
  &lt;content font-pixel-size="36" font="Ubuntu" font-underline="0" font-weight="25" alignment="4" font-italic="0" font-color="255,255,255,255">Adarsh Sehgal, Ashutosh Singandhupe and Dr. Hung La are with the Advanced Robotics and Automation (ARA) 
Laboratory. Dr. Alireza Tavakkoli is with the Computer Vision Laboratory (CVL). Dr. Sushil J. Louis is with the 
Evolutionary Computing Systems Lab, University of Nevada, Reno, NV 89557, USA&lt;/content>
 &lt;/item>
 &lt;item type="QGraphicsTextItem" z-index="1">
  &lt;position x="130.986" y="554.876">
   &lt;transform>1,0,0,0,1,0,0,0,1&lt;/transform>
  &lt;/position>
  &lt;content font-pixel-size="67" font="Ubuntu" font-underline="0" font-weight="25" alignment="4" font-italic="0" font-color="255,255,255,255">Adarsh Sehgal, Ashutosh Singandhupe, Hung Manh La,
Alireza Tavakkoli, Sushil J. Louis&lt;/content>
 &lt;/item>
 &lt;item type="QGraphicsPixmapItem" z-index="1">
  &lt;position x="194.633" y="41.2061">
   &lt;transform>0.166944,0,0,0,0.166944,0,0,0,1&lt;/transform>
  &lt;/position>
  &lt;content url="/home/labuser/Downloads/1200px-University_of_Nevada,_Reno_seal.svg.png"/>
 &lt;/item>
 &lt;item type="QGraphicsTextItem" z-index="0">
  &lt;position x="27.8689" y="248.525">
   &lt;transform>1,0,0,0,1,0,0,0,1&lt;/transform>
  &lt;/position>
  &lt;content font-pixel-size="67" font="Ubuntu" font-underline="0" font-weight="75" alignment="4" font-italic="0" font-color="255,255,255,255">Lidar-Monocular Visual Odometry with Genetic Algorithm 
for Parameter Optimization&lt;/content>
 &lt;/item>
 &lt;startviewport rect="0,0,1920,1080"/>
 &lt;endviewport rect="0,0,1920,1080"/>
 &lt;background color="0,0,0,0"/>
&lt;/kdenlivetitle>
</property>
  <property name="force_reload">0</property>
  <property name="meta.media.width">1920</property>
  <property name="meta.media.height">1080</property>
  <property name="kdenlive:file_hash">942315199c75e7699350d6659637cb29</property>
  <property name="global_feed">1</property>
 </producer>
 <producer in="0" out="124" title="Anonymous Submission" id="9">
  <property name="mlt_type">mlt_producer</property>
  <property name="length">00:00:05:00</property>
  <property name="eof">pause</property>
  <property name="resource"/>
  <property name="progressive">1</property>
  <property name="aspect_ratio">1</property>
  <property name="seekable">1</property>
  <property name="mlt_service">kdenlivetitle</property>
  <property name="kdenlive:clipname">Title clip</property>
  <property name="xmldata">&lt;kdenlivetitle LC_NUMERIC="en_US.UTF-8" width="1920" out="125" duration="125" height="1080">
 &lt;item type="QGraphicsTextItem" z-index="1">
  &lt;position x="176.315" y="295.778">
   &lt;transform>1,0,0,0,1,0,0,0,1&lt;/transform>
  &lt;/position>
  &lt;content font-pixel-size="67" font="Ubuntu" font-underline="0" font-weight="50" font-italic="0" font-color="255,255,255,255">We propose GA-LIMO algorithm. We also compare 
performances of:

- LIMO Lidar-Monocular Visual Odometry
- GA-LIMO Lidar-Monocular Visual Odometry with 
  Genetic Algorithm&lt;/content>
 &lt;/item>
 &lt;startviewport rect="0,0,1920,1080"/>
 &lt;endviewport rect="0,0,1920,1080"/>
 &lt;background color="0,0,0,0"/>
&lt;/kdenlivetitle>
</property>
  <property name="force_reload">0</property>
  <property name="meta.media.width">1920</property>
  <property name="meta.media.height">1080</property>
  <property name="kdenlive:file_hash">d6ba0dbe24748f50583d13ead28b7166</property>
  <property name="global_feed">1</property>
 </producer>
 <producer in="0" out="124" id="10">
  <property name="mlt_type">producer</property>
  <property name="length">00:00:05:00</property>
  <property name="eof">pause</property>
  <property name="resource">Pictures/GA-LIMO algorithm.png</property>
  <property name="ttl">25</property>
  <property name="aspect_ratio">1</property>
  <property name="progressive">1</property>
  <property name="seekable">1</property>
  <property name="loop">1</property>
  <property name="meta.media.width">591</property>
  <property name="meta.media.height">535</property>
  <property name="mlt_service">pixbuf</property>
  <property name="kdenlive:file_size">89763</property>
  <property name="kdenlive:file_hash">eae384957cced05a53dc32f95678116e</property>
 </producer>
 <producer in="0" out="124" title="Anonymous Submission" id="12">
  <property name="mlt_type">mlt_producer</property>
  <property name="length">00:00:05:00</property>
  <property name="eof">pause</property>
  <property name="resource"/>
  <property name="progressive">1</property>
  <property name="aspect_ratio">1</property>
  <property name="seekable">1</property>
  <property name="mlt_service">kdenlivetitle</property>
  <property name="kdenlive:clipname">Title clip</property>
  <property name="xmldata">&lt;kdenlivetitle LC_NUMERIC="en_US.UTF-8" width="1920" out="125" duration="125" height="1080">
 &lt;item type="QGraphicsTextItem" z-index="0">
  &lt;position x="76.5153" y="455.602">
   &lt;transform>1,0,0,0,1,0,0,0,1&lt;/transform>
  &lt;/position>
  &lt;content font-pixel-size="73" font="Ubuntu" font-underline="0" font-weight="25" font-italic="0" font-color="255,255,255,255">Let's see how GA-LIMO tracks with KITTI sequence 00 ...&lt;/content>
 &lt;/item>
 &lt;startviewport rect="0,0,1920,1080"/>
 &lt;endviewport rect="0,0,1920,1080"/>
 &lt;background color="0,0,0,0"/>
&lt;/kdenlivetitle>
</property>
  <property name="force_reload">0</property>
  <property name="meta.media.width">1920</property>
  <property name="meta.media.height">1080</property>
  <property name="kdenlive:file_hash">f15451c7326581cddccee1b9843139dd</property>
  <property name="global_feed">1</property>
 </producer>
 <producer in="0" out="12139" title="Anonymous Submission" id="13">
  <property name="mlt_type">mlt_producer</property>
  <property name="length">00:08:05:15</property>
  <property name="eof">pause</property>
  <property name="resource">Videos/LIMO_with_KITTI_sequence_00_with_camera.mp4</property>
  <property name="meta.media.nb_streams">1</property>
  <property name="meta.media.0.stream.type">video</property>
  <property name="meta.media.0.stream.frame_rate">15</property>
  <property name="meta.media.0.stream.sample_aspect_ratio">0</property>
  <property name="meta.media.0.codec.width">1680</property>
  <property name="meta.media.0.codec.height">1050</property>
  <property name="meta.media.0.codec.rotate">0</property>
  <property name="meta.media.0.codec.frame_rate">15</property>
  <property name="meta.media.0.codec.pix_fmt">yuv444p</property>
  <property name="meta.media.0.codec.sample_aspect_ratio">1</property>
  <property name="meta.media.0.codec.colorspace">709</property>
  <property name="meta.media.0.codec.name">h264</property>
  <property name="meta.media.0.codec.long_name">H.264 / AVC / MPEG-4 AVC / MPEG-4 part 10</property>
  <property name="meta.media.0.codec.bit_rate">24726766</property>
  <property name="meta.attr.0.stream.creation_time.markup">2019-01-25 23:03:53</property>
  <property name="meta.attr.0.stream.language.markup">eng</property>
  <property name="meta.attr.0.stream.handler_name.markup">VideoHandler</property>
  <property name="meta.attr.major_brand.markup">mp42</property>
  <property name="meta.attr.minor_version.markup">0</property>
  <property name="meta.attr.compatible_brands.markup">mp42mp41isomiso2</property>
  <property name="meta.attr.creation_time.markup">2019-01-25 23:03:53</property>
  <property name="meta.attr.encoder.markup">x264</property>
  <property name="seekable">1</property>
  <property name="meta.media.sample_aspect_num">1</property>
  <property name="meta.media.sample_aspect_den">1</property>
  <property name="aspect_ratio">1</property>
  <property name="audio_index">-1</property>
  <property name="video_index">0</property>
  <property name="mute_on_pause">1</property>
  <property name="mlt_service">avformat-novalidate</property>
  <property name="meta.media.frame_rate_num">15</property>
  <property name="meta.media.frame_rate_den">1</property>
  <property name="meta.media.colorspace">709</property>
  <property name="meta.media.color_trc">2</property>
  <property name="meta.media.width">1680</property>
  <property name="meta.media.height">1050</property>
  <property name="meta.media.top_field_first">0</property>
  <property name="meta.media.progressive">1</property>
  <property name="kdenlive:file_size">1500974024</property>
  <property name="kdenlive:file_hash">cbec0a202df392df16db8ea8c0413731</property>
  <property name="global_feed">1</property>
 </producer>
 <producer in="0" out="124" title="Anonymous Submission" id="14">
  <property name="mlt_type">mlt_producer</property>
  <property name="length">00:00:05:00</property>
  <property name="eof">pause</property>
  <property name="resource"/>
  <property name="progressive">1</property>
  <property name="aspect_ratio">1</property>
  <property name="seekable">1</property>
  <property name="mlt_service">kdenlivetitle</property>
  <property name="kdenlive:clipname">Title clip</property>
  <property name="xmldata">&lt;kdenlivetitle LC_NUMERIC="en_US.UTF-8" width="1920" out="125" duration="125" height="1080">
 &lt;item type="QGraphicsTextItem" z-index="0">
  &lt;position x="333.306" y="441.202">
   &lt;transform>1,0,0,0,1,0,0,0,1&lt;/transform>
  &lt;/position>
  &lt;content font-pixel-size="73" font="Ubuntu" font-underline="0" font-outline-color="0,0,0,255" font-weight="25" font-outline="0" alignment="4" font-italic="0" font-color="255,255,255,255">Now we compare GA-LIMO with LIMO 
on various sequences ...&lt;/content>
 &lt;/item>
 &lt;startviewport rect="0,0,1920,1080"/>
 &lt;endviewport rect="0,0,1920,1080"/>
 &lt;background color="0,0,0,0"/>
&lt;/kdenlivetitle>
</property>
  <property name="force_reload">0</property>
  <property name="meta.media.width">1920</property>
  <property name="meta.media.height">1080</property>
  <property name="kdenlive:file_hash">1da71490b9cffe6ef65d4e4353bc4043</property>
  <property name="global_feed">1</property>
 </producer>
 <producer in="0" out="273" title="Anonymous Submission" id="15">
  <property name="mlt_type">mlt_producer</property>
  <property name="length">274</property>
  <property name="eof">pause</property>
  <property name="resource"/>
  <property name="progressive">1</property>
  <property name="aspect_ratio">1</property>
  <property name="seekable">1</property>
  <property name="mlt_service">kdenlivetitle</property>
  <property name="kdenlive:clipname">Title clip</property>
  <property name="xmldata">&lt;kdenlivetitle LC_NUMERIC="en_US.UTF-8" width="1920" out="125" duration="125" height="1080">
 &lt;item type="QGraphicsTextItem" z-index="0">
  &lt;position x="707.859" y="43.1701">
   &lt;transform>1,0,0,0,1,0,0,0,1&lt;/transform>
  &lt;/position>
  &lt;content font-pixel-size="73" font="Ubuntu" font-underline="0" font-outline-color="0,0,0,255" font-weight="25" font-outline="0" font-italic="0" font-color="255,255,255,255">Sequence 00&lt;/content>
 &lt;/item>
 &lt;startviewport rect="0,0,1920,1080"/>
 &lt;endviewport rect="0,0,1920,1080"/>
 &lt;background color="0,0,0,0"/>
&lt;/kdenlivetitle>
</property>
  <property name="force_reload">0</property>
  <property name="meta.media.width">1920</property>
  <property name="meta.media.height">1080</property>
  <property name="kdenlive:file_hash">f35677c2cc1347758305de84bdb906bb</property>
  <property name="global_feed">1</property>
 </producer>
 <producer in="0" out="124" id="16">
  <property name="mlt_type">producer</property>
  <property name="length">00:00:05:00</property>
  <property name="eof">pause</property>
  <property name="resource"/>
  <property name="progressive">1</property>
  <property name="aspect_ratio">1</property>
  <property name="seekable">1</property>
  <property name="mlt_service">kdenlivetitle</property>
  <property name="kdenlive:clipname">Title clip</property>
  <property name="xmldata">&lt;kdenlivetitle LC_NUMERIC="en_US.UTF-8" width="1920" out="125" duration="125" height="1080">
 &lt;item type="QGraphicsTextItem" z-index="1">
  &lt;position x="713.158" y="56.9825">
   &lt;transform>1,0,0,0,1,0,0,0,1&lt;/transform>
  &lt;/position>
  &lt;content font-pixel-size="73" font="Ubuntu" font-underline="0" font-outline-color="0,0,0,255" font-weight="25" font-outline="0" font-italic="0" font-color="255,255,255,255">Sequence 01&lt;/content>
 &lt;/item>
 &lt;startviewport rect="0,0,1920,1080"/>
 &lt;endviewport rect="0,0,1920,1080"/>
 &lt;background color="0,0,0,0"/>
&lt;/kdenlivetitle>
</property>
  <property name="force_reload">0</property>
  <property name="meta.media.width">1920</property>
  <property name="meta.media.height">1080</property>
  <property name="kdenlive:file_hash">d804d0e0441ac069f6ce7a2b36e16c24</property>
 </producer>
 <producer in="0" out="124" id="17">
  <property name="mlt_type">producer</property>
  <property name="length">00:00:05:00</property>
  <property name="eof">pause</property>
  <property name="resource"/>
  <property name="progressive">1</property>
  <property name="aspect_ratio">1</property>
  <property name="seekable">1</property>
  <property name="mlt_service">kdenlivetitle</property>
  <property name="kdenlive:clipname">Title clip</property>
  <property name="xmldata">&lt;kdenlivetitle LC_NUMERIC="en_US.UTF-8" width="1920" out="125" duration="125" height="1080">
 &lt;item type="QGraphicsTextItem" z-index="0">
  &lt;position x="709.649" y="64.8772">
   &lt;transform>1,0,0,0,1,0,0,0,1&lt;/transform>
  &lt;/position>
  &lt;content font-pixel-size="73" font="Ubuntu" font-underline="0" font-outline-color="0,0,0,255" font-weight="25" font-outline="0" font-italic="0" font-color="255,255,255,255">Sequence 04&lt;/content>
 &lt;/item>
 &lt;startviewport rect="0,0,1920,1080"/>
 &lt;endviewport rect="0,0,1920,1080"/>
 &lt;background color="0,0,0,0"/>
&lt;/kdenlivetitle>
</property>
  <property name="force_reload">0</property>
  <property name="meta.media.width">1920</property>
  <property name="meta.media.height">1080</property>
  <property name="kdenlive:file_hash">804861802f78f05fee7d677961ef4dfe</property>
 </producer>
 <producer in="0" out="124" title="Anonymous Submission" id="18">
  <property name="mlt_type">mlt_producer</property>
  <property name="length">00:00:05:00</property>
  <property name="eof">pause</property>
  <property name="resource"/>
  <property name="progressive">1</property>
  <property name="aspect_ratio">1</property>
  <property name="seekable">1</property>
  <property name="mlt_service">kdenlivetitle</property>
  <property name="kdenlive:clipname">Title clip</property>
  <property name="xmldata">&lt;kdenlivetitle LC_NUMERIC="en_US.UTF-8" width="1920" out="125" duration="125" height="1080">
 &lt;item type="QGraphicsTextItem" z-index="0">
  &lt;position x="272.84" y="418.363">
   &lt;transform>1,0,0,0,1,0,0,0,1&lt;/transform>
  &lt;/position>
  &lt;content font-pixel-size="73" font="Ubuntu" font-underline="0" font-weight="25" alignment="4" font-italic="0" font-color="255,255,255,255">Experiments show that GA-LIMO performs 
better than LIMO&lt;/content>
 &lt;/item>
 &lt;startviewport rect="0,0,1920,1080"/>
 &lt;endviewport rect="0,0,1920,1080"/>
 &lt;background color="0,0,0,0"/>
&lt;/kdenlivetitle>
</property>
  <property name="force_reload">0</property>
  <property name="meta.media.width">1920</property>
  <property name="meta.media.height">1080</property>
  <property name="kdenlive:file_hash">416e7edb1e6236df956d56e398cac737</property>
  <property name="global_feed">1</property>
 </producer>
 <producer in="0" out="124" title="Anonymous Submission" id="19">
  <property name="mlt_type">mlt_producer</property>
  <property name="length">00:00:05:00</property>
  <property name="eof">pause</property>
  <property name="resource"/>
  <property name="progressive">1</property>
  <property name="aspect_ratio">1</property>
  <property name="seekable">1</property>
  <property name="mlt_service">kdenlivetitle</property>
  <property name="kdenlive:clipname">Title clip</property>
  <property name="xmldata">&lt;kdenlivetitle LC_NUMERIC="en_US.UTF-8" width="1920" out="125" duration="125" height="1080">
 &lt;item type="QGraphicsTextItem" z-index="0">
  &lt;position x="386.006" y="231.605">
   &lt;transform>1,0,0,0,1,0,0,0,1&lt;/transform>
  &lt;/position>
  &lt;content font-pixel-size="65" font="Ubuntu" font-underline="0" font-weight="25" font-italic="0" font-color="255,255,255,255">Lower translation error
- Sequence 00
   GA-LIMO 5.13%   LIMO 5.77%

- Sequence 01
   GA-LIMO 3.59%   LIMO 3.79%

- Sequence 04
   GA-LIMO 0.69%   LIMO 1.01%&lt;/content>
 &lt;/item>
 &lt;item type="QGraphicsTextItem" z-index="0">
  &lt;position x="765.379" y="74.6042">
   &lt;transform>1,0,0,0,1,0,0,0,1&lt;/transform>
  &lt;/position>
  &lt;content font-pixel-size="85" font="Ubuntu" font-underline="0" font-weight="25" font-italic="0" font-color="255,255,255,255">Results&lt;/content>
 &lt;/item>
 &lt;startviewport rect="0,0,1920,1080"/>
 &lt;endviewport rect="0,0,1920,1080"/>
 &lt;background color="0,0,0,0"/>
&lt;/kdenlivetitle>
</property>
  <property name="force_reload">0</property>
  <property name="meta.media.width">1920</property>
  <property name="meta.media.height">1080</property>
  <property name="kdenlive:file_hash">d5cdbefc819bf4ab9268b4b1211cd1a3</property>
  <property name="global_feed">1</property>
 </producer>
 <producer in="0" out="124" title="Anonymous Submission" id="20">
  <property name="mlt_type">mlt_producer</property>
  <property name="length">00:00:05:00</property>
  <property name="eof">pause</property>
  <property name="resource"/>
  <property name="progressive">1</property>
  <property name="aspect_ratio">1</property>
  <property name="seekable">1</property>
  <property name="mlt_service">kdenlivetitle</property>
  <property name="kdenlive:clipname">Title clip</property>
  <property name="xmldata">&lt;kdenlivetitle LC_NUMERIC="en_US.UTF-8" width="1920" out="125" duration="125" height="1080">
 &lt;item type="QGraphicsTextItem" z-index="1">
  &lt;position x="112.343" y="281.161">
   &lt;transform>1,0,0,0,1,0,0,0,1&lt;/transform>
  &lt;/position>
  &lt;content font-pixel-size="67" font="Ubuntu" font-underline="0" font-weight="50" alignment="4" font-italic="0" font-color="255,255,255,255">This material is based upon work supported by the 
National Aeronautics and Space Administration (NASA)
 Grant No. NNX15AI02H issued through the
 NVSGC-RI program under sub-award No. 19-21, and the 
RID program under sub-award No. 19-29, and the 
NVSGC-CD program under sub-award No. 18-54. This
work is also partially supported by the Office of Naval 
Research under Grant N00014-17-1-2558.&lt;/content>
 &lt;/item>
 &lt;item type="QGraphicsTextItem" z-index="0">
  &lt;position x="680.624" y="113.475">
   &lt;transform>1,0,0,0,1,0,0,0,1&lt;/transform>
  &lt;/position>
  &lt;content font-pixel-size="67" font="Ubuntu" font-underline="0" font-weight="50" font-italic="0" font-color="255,255,255,255">Acknowledgement&lt;/content>
 &lt;/item>
 &lt;startviewport rect="0,0,1920,1080"/>
 &lt;endviewport rect="0,0,1920,1080"/>
 &lt;background color="0,0,0,0"/>
&lt;/kdenlivetitle>
</property>
  <property name="force_reload">0</property>
  <property name="meta.media.width">1920</property>
  <property name="meta.media.height">1080</property>
  <property name="kdenlive:file_hash">0df96b205d078c422e0c1f523e9cc93d</property>
  <property name="global_feed">1</property>
 </producer>
 <playlist kdenlive:customeffects="&lt;customeffects/>&#xa;" id="main bin">
  <property name="kdenlive:customeffects">&lt;customeffects/>
</property>
  <property name="kdenlive:docproperties.documentid">1551660331565</property>
  <property name="kdenlive:docproperties.enableproxy">0</property>
  <property name="kdenlive:docproperties.generateimageproxy">0</property>
  <property name="kdenlive:docproperties.generateproxy">0</property>
  <property name="kdenlive:docproperties.kdenliveversion">15.12.3</property>
  <property name="kdenlive:docproperties.position">102</property>
  <property name="kdenlive:docproperties.profile">atsc_1080p_25</property>
  <property name="kdenlive:docproperties.projectfolder">kdenlive</property>
  <property name="kdenlive:docproperties.proxyextension">mpg</property>
  <property name="kdenlive:docproperties.proxyimageminsize">2000</property>
  <property name="kdenlive:docproperties.proxyminsize">1000</property>
  <property name="kdenlive:docproperties.proxyparams">-s 640x480 -g 5 -qscale 6 -ab 128k -vcodec mpeg2video -acodec mp2</property>
  <property name="kdenlive:docproperties.version">0.91</property>
  <property name="kdenlive:docproperties.verticalzoom">1</property>
  <property name="kdenlive:docproperties.zonein">775</property>
  <property name="kdenlive:docproperties.zoneout">1993</property>
  <property name="kdenlive:docproperties.zoom">5</property>
  <property name="kdenlive:documentnotes"/>
  <property name="kdenlive:clipgroups">&lt;groups>
 &lt;group>
  &lt;clipitem track="4" position="447"/>
  &lt;clipitem track="4" position="522"/>
  &lt;clipitem track="4" position="317"/>
 &lt;/group>
 &lt;group>
  &lt;clipitem track="4" position="647"/>
  &lt;clipitem track="5" position="647"/>
  &lt;clipitem track="3" position="647"/>
 &lt;/group>
 &lt;group>
  &lt;clipitem track="5" position="727"/>
  &lt;transitionitem track="5" position="727"/>
 &lt;/group>
 &lt;group>
  &lt;clipitem track="3" position="728"/>
  &lt;clipitem track="4" position="728"/>
 &lt;/group>
&lt;/groups>
</property>
  <property name="kdenlive:docproperties.renderaudiobitrate">160</property>
  <property name="kdenlive:docproperties.renderbitrate">20</property>
  <property name="kdenlive:docproperties.rendercategory">MP4</property>
  <property name="kdenlive:docproperties.renderendguide">-1</property>
  <property name="kdenlive:docproperties.renderexportaudio">0</property>
  <property name="kdenlive:docproperties.renderguide">0</property>
  <property name="kdenlive:docproperties.renderplay">0</property>
  <property name="kdenlive:docproperties.renderprofile">H.264/AAC fast</property>
  <property name="kdenlive:docproperties.renderratio">1</property>
  <property name="kdenlive:docproperties.renderrescale">0</property>
  <property name="kdenlive:docproperties.renderrescaleheight">180</property>
  <property name="kdenlive:docproperties.renderrescalewidth">320</property>
  <property name="kdenlive:docproperties.renderscanning">0</property>
  <property name="kdenlive:docproperties.renderstartguide">-1</property>
  <property name="kdenlive:docproperties.rendertcoverlay">0</property>
  <property name="kdenlive:docproperties.rendertctype">0</property>
  <property name="kdenlive:docproperties.rendertwopass">0</property>
  <property name="kdenlive:docproperties.renderurl">kdenlive/final_video.mp4</property>
  <property name="kdenlive:docproperties.renderzone">0</property>
  <property name="xml_retain">1</property>
  <entry in="0" out="124" producer="1"/>
  <entry in="0" out="124" producer="2"/>
  <entry in="0" out="124" producer="3"/>
  <entry in="0" out="124" producer="4"/>
  <entry in="0" out="124" producer="5"/>
  <entry in="0" out="124" producer="6"/>
  <entry in="0" out="124" producer="7"/>
  <entry in="0" out="124" producer="8"/>
  <entry in="0" out="124" producer="9"/>
  <entry in="0" out="124" producer="10"/>
  <entry in="0" out="124" producer="12"/>
  <entry in="0" out="12139" producer="13"/>
  <entry in="0" out="124" producer="14"/>
  <entry in="0" out="124" producer="15"/>
  <entry in="0" out="124" producer="16"/>
  <entry in="0" out="124" producer="17"/>
  <entry in="0" out="124" producer="18"/>
  <entry in="0" out="124" producer="19"/>
  <entry in="0" out="124" producer="20"/>
 </playlist>
 <producer in="0" out="500" id="black">
  <property name="mlt_type">producer</property>
  <property name="length">15000</property>
  <property name="eof">pause</property>
  <property name="resource">black</property>
  <property name="aspect_ratio">0</property>
  <property name="mlt_service">colour</property>
 </producer>
 <playlist id="black_track">
  <entry in="0" out="1197" producer="black"/>
 </playlist>
 <playlist id="playlist1">
  <property name="kdenlive:track_name">Audio 2</property>
  <property name="kdenlive:audio_track">1</property>
 </playlist>
 <playlist id="playlist2">
  <property name="kdenlive:track_name">Audio 1</property>
  <property name="kdenlive:audio_track">1</property>
 </playlist>
 <playlist id="playlist3">
  <property name="kdenlive:track_name">Video 3</property>
  <blank length="647"/>
  <entry in="0" out="80" producer="4">
   <filter id="affine">
    <property name="background">colour:0x00000000</property>
    <property name="mlt_type">filter</property>
    <property name="mlt_service">affine</property>
    <property name="kdenlive_id">affine</property>
    <property name="tag">affine</property>
    <property name="kdenlive_ix">1</property>
    <property name="kdenlive_info"/>
    <property name="disable"/>
    <property name="transition.fix_rotate_x">0</property>
    <property name="transition.fix_rotate_y">0</property>
    <property name="transition.fix_rotate_z">0</property>
    <property name="transition.rotate_x">0</property>
    <property name="transition.rotate_y">0</property>
    <property name="transition.rotate_z">0</property>
    <property name="transition.fix_shear_x">0</property>
    <property name="transition.fix_shear_y">0</property>
    <property name="transition.shear_x">0</property>
    <property name="transition.shear_y">0</property>
    <property name="transition.geometry">1226/144:290x809:100</property>
   </filter>
  </entry>
  <entry in="0" out="79" producer="5">
   <filter id="filter0">
    <property name="background">colour:0x00000000</property>
    <property name="mlt_type">filter</property>
    <property name="mlt_service">affine</property>
    <property name="kdenlive_id">affine</property>
    <property name="tag">affine</property>
    <property name="kdenlive_ix">1</property>
    <property name="kdenlive_info"/>
    <property name="transition.fix_rotate_x">0</property>
    <property name="transition.fix_rotate_y">0</property>
    <property name="transition.fix_rotate_z">0</property>
    <property name="transition.rotate_x">0</property>
    <property name="transition.rotate_y">0</property>
    <property name="transition.rotate_z">0</property>
    <property name="transition.fix_shear_x">0</property>
    <property name="transition.fix_shear_y">0</property>
    <property name="transition.shear_x">0</property>
    <property name="transition.shear_y">0</property>
    <property name="transition.geometry">278/173:2253x833:100</property>
   </filter>
  </entry>
  <entry in="0" out="96" producer="6">
   <filter id="filter1">
    <property name="background">colour:0x00000000</property>
    <property name="mlt_type">filter</property>
    <property name="mlt_service">affine</property>
    <property name="kdenlive_id">affine</property>
    <property name="tag">affine</property>
    <property name="kdenlive_ix">1</property>
    <property name="kdenlive_info"/>
    <property name="transition.fix_rotate_x">0</property>
    <property name="transition.fix_rotate_y">0</property>
    <property name="transition.fix_rotate_z">0</property>
    <property name="transition.rotate_x">0</property>
    <property name="transition.rotate_y">0</property>
    <property name="transition.rotate_z">0</property>
    <property name="transition.fix_shear_x">0</property>
    <property name="transition.fix_shear_y">0</property>
    <property name="transition.shear_x">0</property>
    <property name="transition.shear_y">0</property>
    <property name="transition.geometry">650/188:1402x794:100</property>
   </filter>
  </entry>
 </playlist>
 <producer in="0" out="12139" title="Anonymous Submission" id="13_playlist4">
  <property name="mlt_type">producer</property>
  <property name="length">00:08:05:15</property>
  <property name="eof">pause</property>
  <property name="resource">Videos/LIMO_with_KITTI_sequence_00_with_camera.mp4</property>
  <property name="audio_index">-1</property>
  <property name="video_index">0</property>
  <property name="mute_on_pause">1</property>
  <property name="mlt_service">avformat-novalidate</property>
  <property name="seekable">1</property>
  <property name="aspect_ratio">1</property>
  <property name="kdenlive:file_size">1500974024</property>
  <property name="kdenlive:file_hash">cbec0a202df392df16db8ea8c0413731</property>
  <property name="global_feed">1</property>
  <property name="xml">was here</property>
  <property name="meta.media.nb_streams">1</property>
  <property name="meta.media.0.stream.type">video</property>
  <property name="meta.media.0.stream.frame_rate">15</property>
  <property name="meta.media.0.stream.sample_aspect_ratio">0</property>
  <property name="meta.media.0.codec.width">1680</property>
  <property name="meta.media.0.codec.height">1050</property>
  <property name="meta.media.0.codec.rotate">0</property>
  <property name="meta.media.0.codec.frame_rate">15</property>
  <property name="meta.media.0.codec.pix_fmt">yuv444p</property>
  <property name="meta.media.0.codec.sample_aspect_ratio">1</property>
  <property name="meta.media.0.codec.colorspace">709</property>
  <property name="meta.media.0.codec.name">h264</property>
  <property name="meta.media.0.codec.long_name">H.264 / AVC / MPEG-4 AVC / MPEG-4 part 10</property>
  <property name="meta.media.0.codec.bit_rate">24726766</property>
  <property name="meta.attr.0.stream.creation_time.markup">2019-01-25 23:03:53</property>
  <property name="meta.attr.0.stream.language.markup">eng</property>
  <property name="meta.attr.0.stream.handler_name.markup">VideoHandler</property>
  <property name="meta.attr.major_brand.markup">mp42</property>
  <property name="meta.attr.minor_version.markup">0</property>
  <property name="meta.attr.compatible_brands.markup">mp42mp41isomiso2</property>
  <property name="meta.attr.creation_time.markup">2019-01-25 23:03:53</property>
  <property name="meta.attr.encoder.markup">x264</property>
  <property name="meta.media.sample_aspect_num">1</property>
  <property name="meta.media.sample_aspect_den">1</property>
  <property name="meta.media.frame_rate_num">15</property>
  <property name="meta.media.frame_rate_den">1</property>
  <property name="meta.media.colorspace">709</property>
  <property name="meta.media.color_trc">2</property>
  <property name="meta.media.width">1680</property>
  <property name="meta.media.height">1050</property>
  <property name="meta.media.top_field_first">0</property>
  <property name="meta.media.progressive">1</property>
 </producer>
 <playlist id="playlist4">
  <property name="kdenlive:track_name">Video 2</property>
  <property name="kdenlive:locked_track">0</property>
  <property name="kdenlive:composite">1</property>
  <blank length="317"/>
  <entry in="950" out="1079" producer="13_playlist4"/>
  <entry in="10500" out="10574" producer="13_playlist4"/>
  <entry in="12000" out="12067" producer="13_playlist4"/>
  <blank length="57"/>
  <entry in="0" out="80" producer="1">
   <filter id="filter2">
    <property name="background">colour:0x00000000</property>
    <property name="mlt_type">filter</property>
    <property name="mlt_service">affine</property>
    <property name="kdenlive_id">affine</property>
    <property name="tag">affine</property>
    <property name="kdenlive_ix">1</property>
    <property name="kdenlive_info"/>
    <property name="disable"/>
    <property name="transition.fix_rotate_x">0</property>
    <property name="transition.fix_rotate_y">0</property>
    <property name="transition.fix_rotate_z">0</property>
    <property name="transition.rotate_x">0</property>
    <property name="transition.rotate_y">0</property>
    <property name="transition.rotate_z">0</property>
    <property name="transition.fix_shear_x">0</property>
    <property name="transition.fix_shear_y">0</property>
    <property name="transition.shear_x">0</property>
    <property name="transition.shear_y">0</property>
    <property name="transition.geometry">-352/146:1603x801:100</property>
   </filter>
  </entry>
  <entry in="0" out="79" producer="2">
   <filter id="filter3">
    <property name="background">colour:0x00000000</property>
    <property name="mlt_type">filter</property>
    <property name="mlt_service">affine</property>
    <property name="kdenlive_id">affine</property>
    <property name="tag">affine</property>
    <property name="kdenlive_ix">1</property>
    <property name="kdenlive_info"/>
    <property name="transition.fix_rotate_x">0</property>
    <property name="transition.fix_rotate_y">0</property>
    <property name="transition.fix_rotate_z">0</property>
    <property name="transition.rotate_x">0</property>
    <property name="transition.rotate_y">0</property>
    <property name="transition.rotate_z">0</property>
    <property name="transition.fix_shear_x">0</property>
    <property name="transition.fix_shear_y">0</property>
    <property name="transition.shear_x">0</property>
    <property name="transition.shear_y">0</property>
    <property name="transition.geometry">-112/176:1173x825:100</property>
   </filter>
  </entry>
  <entry in="0" out="96" producer="3">
   <filter id="filter4">
    <property name="background">colour:0x00000000</property>
    <property name="mlt_type">filter</property>
    <property name="mlt_service">affine</property>
    <property name="kdenlive_id">affine</property>
    <property name="tag">affine</property>
    <property name="kdenlive_ix">1</property>
    <property name="kdenlive_info"/>
    <property name="transition.fix_rotate_x">0</property>
    <property name="transition.fix_rotate_y">0</property>
    <property name="transition.fix_rotate_z">0</property>
    <property name="transition.rotate_x">0</property>
    <property name="transition.rotate_y">0</property>
    <property name="transition.rotate_z">0</property>
    <property name="transition.fix_shear_x">0</property>
    <property name="transition.fix_shear_y">0</property>
    <property name="transition.shear_x">0</property>
    <property name="transition.shear_y">0</property>
    <property name="transition.geometry">47/189:850x784:100</property>
   </filter>
  </entry>
 </playlist>
 <playlist id="playlist5">
  <property name="kdenlive:track_name">Video 1</property>
  <property name="kdenlive:locked_track">0</property>
  <property name="kdenlive:composite">1</property>
  <entry in="0" out="78" producer="8">
   <filter id="filter5">
    <property name="background">colour:0x00000000</property>
    <property name="mlt_type">filter</property>
    <property name="mlt_service">affine</property>
    <property name="kdenlive_id">affine</property>
    <property name="tag">affine</property>
    <property name="kdenlive_ix">1</property>
    <property name="transition.fix_rotate_x">0</property>
    <property name="transition.fix_rotate_y">0</property>
    <property name="transition.fix_rotate_z">0</property>
    <property name="transition.rotate_x">0</property>
    <property name="transition.rotate_y">0</property>
    <property name="transition.rotate_z">0</property>
    <property name="transition.fix_shear_x">0</property>
    <property name="transition.fix_shear_y">0</property>
    <property name="transition.shear_x">0</property>
    <property name="transition.shear_y">0</property>
    <property name="transition.geometry">0%,0%:100%x100%</property>
    <property name="kdenlive_info"/>
   </filter>
  </entry>
  <entry in="0" out="79" producer="9"/>
  <entry in="0" out="112" producer="10"/>
  <entry in="0" out="44" producer="12"/>
  <entry in="0" out="272" producer="15"/>
  <entry in="0" out="56" producer="14"/>
  <entry in="0" out="79" producer="15"/>
  <entry in="0" out="79" producer="16"/>
  <entry in="0" out="96" producer="17"/>
  <entry in="0" out="91" producer="18"/>
  <entry in="0" out="94" producer="19"/>
  <entry in="0" out="106" producer="20"/>
 </playlist>
 <tractor in="0" global_feed="1" out="1197" title="Anonymous Submission" id="maintractor">
  <track producer="black_track"/>
  <track producer="playlist1" hide="video"/>
  <track producer="playlist2" hide="video"/>
  <track producer="playlist3"/>
  <track producer="playlist4"/>
  <track producer="playlist5"/>
  <transition id="transition0">
   <property name="a_track">0</property>
   <property name="b_track">1</property>
   <property name="mlt_type">transition</property>
   <property name="mlt_service">mix</property>
   <property name="always_active">1</property>
   <property name="combine">1</property>
   <property name="internal_added">237</property>
  </transition>
  <transition id="transition1">
   <property name="a_track">0</property>
   <property name="b_track">2</property>
   <property name="mlt_type">transition</property>
   <property name="mlt_service">mix</property>
   <property name="always_active">1</property>
   <property name="combine">1</property>
   <property name="internal_added">237</property>
  </transition>
  <transition id="transition2">
   <property name="a_track">0</property>
   <property name="b_track">3</property>
   <property name="mlt_type">transition</property>
   <property name="mlt_service">mix</property>
   <property name="always_active">1</property>
   <property name="combine">1</property>
   <property name="internal_added">237</property>
  </transition>
  <transition id="transition3">
   <property name="a_track">0</property>
   <property name="b_track">4</property>
   <property name="mlt_type">transition</property>
   <property name="mlt_service">mix</property>
   <property name="always_active">1</property>
   <property name="combine">1</property>
   <property name="internal_added">237</property>
  </transition>
  <transition id="transition4">
   <property name="a_track">0</property>
   <property name="b_track">5</property>
   <property name="mlt_type">transition</property>
   <property name="mlt_service">mix</property>
   <property name="always_active">1</property>
   <property name="combine">1</property>
   <property name="internal_added">237</property>
  </transition>
  <transition in="272" out="316" id="transition5">
   <property name="a_track">4</property>
   <property name="b_track">5</property>
   <property name="distort">0</property>
   <property name="geometry">0/0:100%x100%:100%</property>
   <property name="fill">1</property>
   <property name="mlt_type">transition</property>
   <property name="mlt_service">affine</property>
   <property name="automatic">1</property>
   <property name="force_track">0</property>
   <property name="keyed">1</property>
   <property name="rotate_x">0</property>
   <property name="rotate_y">0</property>
   <property name="rotate_z">0</property>
   <property name="shear_x">0</property>
   <property name="shear_y">0</property>
   <property name="shear_z">0</property>
  </transition>
  <transition in="647" out="726" id="transition6">
   <property name="a_track">4</property>
   <property name="b_track">5</property>
   <property name="distort">0</property>
   <property name="geometry">0/0:100%x100%:100%</property>
   <property name="fill">1</property>
   <property name="mlt_type">transition</property>
   <property name="mlt_service">affine</property>
   <property name="automatic">1</property>
   <property name="force_track">0</property>
   <property name="keyed">1</property>
   <property name="rotate_x">0</property>
   <property name="rotate_y">0</property>
   <property name="rotate_z">0</property>
   <property name="shear_x">0</property>
   <property name="shear_y">0</property>
   <property name="shear_z">0</property>
  </transition>
  <transition in="317" out="589" id="transition7">
   <property name="a_track">4</property>
   <property name="b_track">5</property>
   <property name="distort">0</property>
   <property name="geometry">0/0:100%x100%:100%</property>
   <property name="fill">1</property>
   <property name="mlt_type">transition</property>
   <property name="mlt_service">affine</property>
   <property name="automatic">1</property>
   <property name="force_track">0</property>
   <property name="keyed">1</property>
   <property name="rotate_x">0</property>
   <property name="rotate_y">0</property>
   <property name="rotate_z">0</property>
   <property name="shear_x">0</property>
   <property name="shear_y">0</property>
   <property name="shear_z">0</property>
  </transition>
  <transition in="807" out="904" id="transition8">
   <property name="a_track">4</property>
   <property name="b_track">5</property>
   <property name="distort">0</property>
   <property name="geometry">0/0:100%x100%:100%</property>
   <property name="fill">1</property>
   <property name="mlt_type">transition</property>
   <property name="mlt_service">affine</property>
   <property name="automatic">1</property>
   <property name="force_track">0</property>
   <property name="keyed">1</property>
   <property name="rotate_x">0</property>
   <property name="rotate_y">0</property>
   <property name="rotate_z">0</property>
   <property name="shear_x">0</property>
   <property name="shear_y">0</property>
   <property name="shear_z">0</property>
  </transition>
  <transition in="727" out="806" id="transition9">
   <property name="a_track">4</property>
   <property name="b_track">5</property>
   <property name="distort">0</property>
   <property name="geometry">0/0:100%x100%:100%</property>
   <property name="fill">1</property>
   <property name="mlt_type">transition</property>
   <property name="mlt_service">affine</property>
   <property name="automatic">1</property>
   <property name="force_track">0</property>
   <property name="keyed">1</property>
   <property name="rotate_x">0</property>
   <property name="rotate_y">0</property>
   <property name="rotate_z">0</property>
   <property name="shear_x">0</property>
   <property name="shear_y">0</property>
   <property name="shear_z">0</property>
  </transition>
  <transition in="590" out="646" id="transition10">
   <property name="a_track">4</property>
   <property name="b_track">5</property>
   <property name="distort">0</property>
   <property name="geometry">0/0:100%x100%:100%</property>
   <property name="fill">1</property>
   <property name="mlt_type">transition</property>
   <property name="mlt_service">affine</property>
   <property name="automatic">1</property>
   <property name="force_track">0</property>
   <property name="keyed">1</property>
   <property name="rotate_x">0</property>
   <property name="rotate_y">0</property>
   <property name="rotate_z">0</property>
   <property name="shear_x">0</property>
   <property name="shear_y">0</property>
   <property name="shear_z">0</property>
  </transition>
  <transition in="996" out="1090" id="transition11">
   <property name="a_track">4</property>
   <property name="b_track">5</property>
   <property name="distort">0</property>
   <property name="geometry">0/0:100%x100%:100%</property>
   <property name="fill">1</property>
   <property name="mlt_type">transition</property>
   <property name="mlt_service">affine</property>
   <property name="automatic">1</property>
   <property name="force_track">0</property>
   <property name="keyed">1</property>
   <property name="rotate_x">0</property>
   <property name="rotate_y">0</property>
   <property name="rotate_z">0</property>
   <property name="shear_x">0</property>
   <property name="shear_y">0</property>
   <property name="shear_z">0</property>
  </transition>
  <transition in="79" out="158" id="transition12">
   <property name="a_track">4</property>
   <property name="b_track">5</property>
   <property name="distort">0</property>
   <property name="geometry">0/0:100%x100%:100%</property>
   <property name="fill">1</property>
   <property name="mlt_type">transition</property>
   <property name="mlt_service">affine</property>
   <property name="automatic">1</property>
   <property name="force_track">0</property>
   <property name="keyed">1</property>
   <property name="rotate_x">0</property>
   <property name="rotate_y">0</property>
   <property name="rotate_z">0</property>
   <property name="shear_x">0</property>
   <property name="shear_y">0</property>
   <property name="shear_z">0</property>
  </transition>
  <transition in="1091" out="1197" id="transition13">
   <property name="a_track">4</property>
   <property name="b_track">5</property>
   <property name="distort">0</property>
   <property name="geometry">0/0:100%x100%:100%</property>
   <property name="fill">1</property>
   <property name="mlt_type">transition</property>
   <property name="mlt_service">affine</property>
   <property name="automatic">1</property>
   <property name="force_track">0</property>
   <property name="keyed">1</property>
   <property name="rotate_x">0</property>
   <property name="rotate_y">0</property>
   <property name="rotate_z">0</property>
   <property name="shear_x">0</property>
   <property name="shear_y">0</property>
   <property name="shear_z">0</property>
  </transition>
  <transition out="78" id="transition14">
   <property name="a_track">4</property>
   <property name="b_track">5</property>
   <property name="distort">0</property>
   <property name="geometry">0/0:100%x100%:100%</property>
   <property name="fill">1</property>
   <property name="mlt_type">transition</property>
   <property name="mlt_service">affine</property>
   <property name="automatic">1</property>
   <property name="force_track">0</property>
   <property name="keyed">1</property>
   <property name="rotate_x">0</property>
   <property name="rotate_y">0</property>
   <property name="rotate_z">0</property>
   <property name="shear_x">0</property>
   <property name="shear_y">0</property>
   <property name="shear_z">0</property>
  </transition>
  <transition id="transition15">
   <property name="a_track">3</property>
   <property name="b_track">4</property>
   <property name="version">0.9</property>
   <property name="mlt_type">transition</property>
   <property name="mlt_service">frei0r.cairoblend</property>
   <property name="internal_added">237</property>
   <property name="disable">0</property>
  </transition>
  <transition id="transition16">
   <property name="a_track">4</property>
   <property name="b_track">5</property>
   <property name="version">0.9</property>
   <property name="mlt_type">transition</property>
   <property name="mlt_service">frei0r.cairoblend</property>
   <property name="internal_added">237</property>
  </transition>
 </tractor>
</mlt>
